{
  "accessors": [
    {
      "bufferView": 2,
      "componentType": 5126,
      "count": 3507,
      "max": [
        0.23699599504470825,
        4.3390560150146484,
        4.4672508239746094
      ],
      "min": [
        -4.813115119934082,
        -0.20579099655151367,
        0.0044760000891983509
      ],
      "type": "VEC3"
    },
    {
      "bufferView": 2,
      "byteOffset": 42084,
      "componentType": 5126,
      "count": 3507,
      "max": [
        0.99758762121200562,
        0.99997234344482422,
        0.99903911352157593
      ],
      "min": [
        -0.99823123216629028,
        -0.9990113377571106,
        -0.99968975782394409
      ],
      "type": "VEC3"
    },
    {
      "bufferView": 3,
      "componentType": 5126,
      "count": 3507,
      "max": [
        0.97895652055740356,
        0.63280940055847168,
        0.99996590614318848,
        1
      ],
      "min": [
        -0.99996578693389893,
        -0.82937115430831909,
        -0.98934668302536011,
        1
      ],
      "type": "VEC4"
    },
    {
      "bufferView": 1,
      "componentType": 5126,
      "count": 3507,
      "max": [
        0.99874401092529297,
        0.99750500917434692
      ],
      "min": [
        0.0016639999812468886,
        0.00165200000628829
      ],
      "type": "VEC2"
    },
    {
      "bufferView": 0,
      "componentType": 5125,
      "count": 20130,
      "max": [
        3506
      ],
      "min": [
        0
      ],
      "type": "SCALAR"
    },
    {
      "bufferView": 2,
      "byteOffset": 84168,
      "componentType": 5126,
      "count": 3292,
      "max": [
        4.4156928062438965,
        3.1867260932922363,
        4.2341289520263672
      ],
      "min": [
        -0.12556299567222595,
        -1.3070809841156006,
        0.0045679998584091663
      ],
      "type": "VEC3"
    },
    {
      "bufferView": 2,
      "byteOffset": 123672,
      "componentType": 5126,
      "count": 3292,
      "max": [
        0.9992973804473877,
        0.99955612421035767,
        0.99976837635040283
      ],
      "min": [
        -0.99994009733200073,
        -0.9996340274810791,
        -0.99986076354980469
      ],
      "type": "VEC3"
    },
    {
      "bufferView": 3,
      "byteOffset": 56112,
      "componentType": 5126,
      "count": 3292,
      "max": [
        0.98510676622390747,
        0.98419028520584106,
        0.99992954730987549,
        1
      ],
      "min": [
        -0.9781375527381897,
        -0.99762189388275146,
        -0.99230962991714478,
        1
      ],
      "type": "VEC4"
    },
    {
      "bufferView": 1,
      "byteOffset": 28056,
      "componentType": 5126,
      "count": 3292,
      "max": [
        0.99617797136306763,
        0.99551200866699219
      ],
      "min": [
        0.0057689999230206013,
        0.0038389998953789473
      ],
      "type": "VEC2"
    },
    {
      "bufferView": 0,
      "byteOffset": 80520,
      "componentType": 5125,
      "count": 18708,
      "max": [
        3291
      ],
      "min": [
        0
      ],
      "type": "SCALAR"
    },
    {
      "bufferView": 2,
      "byteOffset": 163176,
      "componentType": 5126,
      "count": 2253,
      "max": [
        -0.22974200546741486,
        -0.059225998818874359,
        3.8499410152435303
      ],
      "min": [
        -3.885113000869751,
        -3.7737510204315186,
        -0.10980000346899033
      ],
      "type": "VEC3"
    },
    {
      "bufferView": 2,
      "byteOffset": 190212,
      "componentType": 5126,
      "count": 2253,
      "max": [
        0.99944949150085449,
        0.99968886375427246,
        0.99935424327850342
      ],
      "min": [
        -0.99885547161102295,
        -0.97632664442062378,
        -0.99968600273132324
      ],
      "type": "VEC3"
    },
    {
      "bufferView": 3,
      "byteOffset": 108784,
      "componentType": 5126,
      "count": 2253,
      "max": [
        0.99999970197677612,
        0.97983264923095703,
        0.99983185529708862,
        1
      ],
      "min": [
        -0.98339188098907471,
        -0.83152961730957031,
        -0.75669366121292114,
        1
      ],
      "type": "VEC4"
    },
    {
      "bufferView": 1,
      "byteOffset": 54392,
      "componentType": 5126,
      "count": 2253,
      "max": [
        0.99709498882293701,
        0.99521201848983765
      ],
      "min": [
        0.0047169998288154602,
        0.0045079998672008514
      ],
      "type": "VEC2"
    },
    {
      "bufferView": 0,
      "byteOffset": 155352,
      "componentType": 5125,
      "count": 12756,
      "max": [
        2252
      ],
      "min": [
        0
      ],
      "type": "SCALAR"
    },
    {
      "bufferView": 2,
      "byteOffset": 217248,
      "componentType": 5126,
      "count": 2186,
      "max": [
        3.3614039421081543,
        -0.69372802972793579,
        2.7112030982971191
      ],
      "min": [
        -0.71950697898864746,
        -4.804415225982666,
        -0.10806699842214584
      ],
      "type": "VEC3"
    },
    {
      "bufferView": 2,
      "byteOffset": 243480,
      "componentType": 5126,
      "count": 2186,
      "max": [
        0.99962860345840454,
        0.99726009368896484,
        0.99954789876937866
      ],
      "min": [
        -0.99894613027572632,
        -0.99970424175262451,
        -0.99999648332595825
      ],
      "type": "VEC3"
    },
    {
      "bufferView": 3,
      "byteOffset": 144832,
      "componentType": 5126,
      "count": 2186,
      "max": [
        0.99363249540328979,
        0.88329708576202393,
        0.81135553121566772,
        1
      ],
      "min": [
        -0.99966293573379517,
        -0.99443173408508301,
        -0.99965637922286987,
        1
      ],
      "type": "VEC4"
    },
    {
      "bufferView": 1,
      "byteOffset": 72416,
      "componentType": 5126,
      "count": 2186,
      "max": [
        0.99260401725769043,
        0.98975098133087158
      ],
      "min": [
        0.0094029996544122696,
        0.015390999615192413
      ],
      "type": "VEC2"
    },
    {
      "bufferView": 0,
      "byteOffset": 206376,
      "componentType": 5125,
      "count": 12396,
      "max": [
        2185
      ],
      "min": [
        0
      ],
      "type": "SCALAR"
    }
  ],
  "asset": {
    "extras": {
      "author": "DigitalSouls (https://sketchfab.com/DigitalSouls)",
      "license": "CC-BY-4.0 (http://creativecommons.org/licenses/by/4.0/)",
      "source": "https://sketchfab.com/3d-models/green-limes-54c4941347d441a7b3ec8341491382ef",
      "title": "Green Limes"
    },
    "generator": "Sketchfab-8.0.0",
    "version": "2.0"
  },
  "bufferViews": [
    {
      "buffer": 0,
      "byteLength": 255960,
      "byteOffset": 0,
      "name": "floatBufferViews",
      "target": 34963
    },
    {
      "buffer": 0,
      "byteLength": 89904,
      "byteOffset": 255960,
      "byteStride": 8,
      "name": "floatBufferViews",
      "target": 34962
    },
    {
      "buffer": 0,
      "byteLength": 269712,
      "byteOffset": 345864,
      "byteStride": 12,
      "name": "floatBufferViews",
      "target": 34962
    },
    {
      "buffer": 0,
      "byteLength": 179808,
      "byteOffset": 615576,
      "byteStride": 16,
      "name": "floatBufferViews",
      "target": 34962
    }
  ],
  "buffers": [
    {
      "byteLength": 795384,
      "uri": "scene.bin"
    }
  ],
  "images": [
    {
      "uri": "textures/lambert2SG_baseColor.jpeg"
    },
    {
      "uri": "textures/lambert2SG_metallicRoughness.png"
    },
    {
      "uri": "textures/lambert2SG_normal.jpeg"
    },
    {
      "uri": "textures/lambert3SG_baseColor.jpeg"
    },
    {
      "uri": "textures/lambert3SG_metallicRoughness.png"
    },
    {
      "uri": "textures/lambert3SG_normal.jpeg"
    },
    {
      "uri": "textures/lambert4SG_baseColor.jpeg"
    },
    {
      "uri": "textures/lambert4SG_metallicRoughness.png"
    },
    {
      "uri": "textures/lambert4SG_normal.jpeg"
    },
    {
      "uri": "textures/lambert5SG_baseColor.jpeg"
    },
    {
      "uri": "textures/lambert5SG_metallicRoughness.png"
    },
    {
      "uri": "textures/lambert5SG_normal.jpeg"
    }
  ],
  "materials": [
    {
      "doubleSided": true,
      "name": "lambert2SG",
      "normalTexture": {
        "index": 2,
        "scale": 1,
        "texCoord": 0
      },
      "occlusionTexture": {
        "index": 1,
        "strength": 1,
        "texCoord": 0
      },
      "pbrMetallicRoughness": {
        "baseColorFactor": [
          1,
          1,
          1,
          1
        ],
        "baseColorTexture": {
          "index": 0,
          "texCoord": 0
        },
        "metallicFactor": 0,
        "metallicRoughnessTexture": {
          "index": 1,
          "texCoord": 0
        },
        "roughnessFactor": 1
      }
    },
    {
      "doubleSided": true,
      "name": "lambert3SG",
      "normalTexture": {
        "index": 5,
        "scale": 1,
        "texCoord": 0
      },
      "occlusionTexture": {
        "index": 4,
        "strength": 1,
        "texCoord": 0
      },
      "pbrMetallicRoughness": {
        "baseColorFactor": [
          1,
          1,
          1,
          1
        ],
        "baseColorTexture": {
          "index": 3,
          "texCoord": 0
        },
        "metallicFactor": 0,
        "metallicRoughnessTexture": {
          "index": 4,
          "texCoord": 0
        },
        "roughnessFactor": 1
      }
    },
    {
      "doubleSided": true,
      "name": "lambert4SG",
      "normalTexture": {
        "index": 8,
        "scale": 1,
        "texCoord": 0
      },
      "occlusionTexture": {
        "index": 7,
        "strength": 1,
        "texCoord": 0
      },
      "pbrMetallicRoughness": {
        "baseColorFactor": [
          1,
          1,
          1,
          1
        ],
        "baseColorTexture": {
          "index": 6,
          "texCoord": 0
        },
        "metallicFactor": 0,
        "metallicRoughnessTexture": {
          "index": 7,
          "texCoord": 0
        },
        "roughnessFactor": 1
      }
    },
    {
      "doubleSided": true,
      "name": "lambert5SG",
      "normalTexture": {
        "index": 11,
        "scale": 1,
        "texCoord": 0
      },
      "occlusionTexture": {
        "index": 10,
        "strength": 1,
        "texCoord": 0
      },
      "pbrMetallicRoughness": {
        "baseColorFactor": [
          1,
          1,
          1,
          1
        ],
        "baseColorTexture": {
          "index": 9,
          "texCoord": 0
        },
        "metallicFactor": 0,
        "metallicRoughnessTexture": {
          "index": 10,
          "texCoord": 0
        },
        "roughnessFactor": 1
      }
    }
  ],
  "meshes": [
    {
      "primitives": [
        {
          "attributes": {
            "NORMAL": 1,
            "POSITION": 0,
            "TANGENT": 2,
            "TEXCOORD_0": 3
          },
          "indices": 4,
          "material": 0,
          "mode": 4
        }
      ]
    },
    {
      "primitives": [
        {
          "attributes": {
            "NORMAL": 6,
            "POSITION": 5,
            "TANGENT": 7,
            "TEXCOORD_0": 8
          },
          "indices": 9,
          "material": 1,
          "mode": 4
        }
      ]
    },
    {
      "primitives": [
        {
          "attributes": {
            "NORMAL": 11,
            "POSITION": 10,
            "TANGENT": 12,
            "TEXCOORD_0": 13
          },
          "indices": 14,
          "material": 2,
          "mode": 4
        }
      ]
    },
    {
      "primitives": [
        {
          "attributes": {
            "NORMAL": 16,
            "POSITION": 15,
            "TANGENT": 17,
            "TEXCOORD_0": 18
          },
          "indices": 19,
          "material": 3,
          "mode": 4
        }
      ]
    }
  ],
  "nodes": [
    {
      "children": [
        1
      ],
      "name": "RootNode (gltf orientation matrix)",
      "rotation": [
        -0.70710678118654746,
        -0,
        -0,
        0.70710678118654757
      ]
    },
    {
      "children": [
        2
      ],
      "name": "RootNode (model correction matrix)"
    },
    {
      "children": [
        3,
        4,
        5,
        6
      ],
      "name": "lime_pack.obj.cleaner.materialmerger.gles"
    },
    {
      "mesh": 0,
      "name": ""
    },
    {
      "mesh": 1,
      "name": ""
    },
    {
      "mesh": 2,
      "name": ""
    },
    {
      "mesh": 3,
      "name": ""
    }
  ],
  "samplers": [
    {
      "magFilter": 9729,
      "minFilter": 9987,
      "wrapS": 10497,
      "wrapT": 10497
    }
  ],
  "scene": 0,
  "scenes": [
    {
      "name": "OSG_Scene",
      "nodes": [
        0
      ]
    }
  ],
  "textures": [
    {
      "sampler": 0,
      "source": 0
    },
    {
      "sampler": 0,
      "source": 1
    },
    {
      "sampler": 0,
      "source": 2
    },
    {
      "sampler": 0,
      "source": 3
    },
    {
      "sampler": 0,
      "source": 4
    },
    {
      "sampler": 0,
      "source": 5
    },
    {
      "sampler": 0,
      "source": 6
    },
    {
      "sampler": 0,
      "source": 7
    },
    {
      "sampler": 0,
      "source": 8
    },
    {
      "sampler": 0,
      "source": 9
    },
    {
      "sampler": 0,
      "source": 10
    },
    {
      "sampler": 0,
      "source": 11
    }
  ]
}

